# xmcd
#
# Track frame offsets:
#	150
#	4417
#	7662
#	13508
#	19728
#	25227
#	35619
#	53421
#	57429
#	60358
#	74984
#	82647
#	87669
#	100194
#	121619
#	133319
#	136843
#	140953
#	143718
#	147304
#	154952
#	157938
#	160558
#	168354
#	175142
#
# Disc length: 2450 seconds
#
# Revision: 0
# Processed by: cddbd v1.5.2PL0 Copyright (c) Steve Scherf et al.
# Submitted via: EasyCDDAExtractor 11.6.0.1
#
DISCID=47099019
DTITLE=Jimi Hendrix - Astro Man´s Mannish Boy Session Edit 2004, April 22 1969
DTITLE=NY CD 1
DYEAR=1969
DGENRE=Blues
TTITLE0=Take 1
TTITLE1=Take 2
TTITLE2=Take 3
TTITLE3=Take 4
TTITLE4=Take 5
TTITLE5=Take 6
TTITLE6=Take 7
TTITLE7=Take 8
TTITLE8=Take 9
TTITLE9=Take 10
TTITLE10=Take 11
TTITLE11=Take 12
TTITLE12=Take 13
TTITLE13=Take 14
TTITLE14=Take 15
TTITLE15=Take 16
TTITLE16=Take 17
TTITLE17=Take 18
TTITLE18=Take 19
TTITLE19=Take 20
TTITLE20=Take 21
TTITLE21=Take 22
TTITLE22=Take 23
TTITLE23=Take 24
TTITLE24=Take 25
EXTD=
EXTT0=
EXTT1=
EXTT2=
EXTT3=
EXTT4=
EXTT5=
EXTT6=
EXTT7=
EXTT8=
EXTT9=
EXTT10=
EXTT11=
EXTT12=
EXTT13=
EXTT14=
EXTT15=
EXTT16=
EXTT17=
EXTT18=
EXTT19=
EXTT20=
EXTT21=
EXTT22=
EXTT23=
EXTT24=
PLAYORDER=
